<svg width="64" height="64" viewBox="0 0 64 64" fill="none" xmlns="http://www.w3.org/2000/svg" role="img" aria-label="Assistant avatar">
  <circle cx="32" cy="32" r="30" fill="#24433B"/>
  <circle cx="32" cy="32" r="26.5" stroke="#F7F0DF" stroke-opacity=".25" stroke-width="2"/>
  <path d="M18.5 24c4.1-1.95 8.55-1.75 13.5.6v21c-4.95-2.35-9.4-2.55-13.5-.6V24Z" stroke="#F7F0DF" stroke-width="2.9" stroke-linejoin="round"/>
  <path d="M32 24.6c4.95-2.35 9.4-2.55 13.5-.6v21c-4.1-1.95-8.55-1.75-13.5.6v-21Z" stroke="#F7F0DF" stroke-width="2.9" stroke-linejoin="round"/>
  <path d="M25 31.2h2.8" stroke="#F7F0DF" stroke-width="2.2" stroke-linecap="round" opacity=".72"/>
  <path d="M36.2 31.2H39" stroke="#F7F0DF" stroke-width="2.2" stroke-linecap="round" opacity=".72"/>
  <path d="M47 14c0 3.65-1.85 5.5-5.5 5.5 3.65 0 5.5 1.85 5.5 5.5 0-3.65 1.85-5.5 5.5-5.5-3.65 0-5.5-1.85-5.5-5.5Z" fill="#D8B56D"/>
</svg>
